Coordinates
version=1
nRows=4
nColumns=48
inDegrees=yes

Units are S.I. units (second, meters, Newtons, ...)
Angles are in degrees.

endheader
time	pelvis_tilt	pelvis_list	pelvis_rotation	pelvis_tx	pelvis_ty	pelvis_tz	hip_flexion_r	hip_adduction_r	hip_rotation_r	knee_angle_r	knee_adduction_r	knee_rotation_r	knee_anterior_posterior_r	knee_inferior_superior_r	knee_medial_lateral_r	ankle_angle_r	subtalar_angle_r	mtp_angle_r	hip_flexion_l	hip_adduction_l	hip_rotation_l	knee_angle_l	knee_adduction_l	knee_rotation_l	knee_anterior_posterior_l	knee_inferior_superior_l	knee_medial_lateral_l	ankle_angle_l	subtalar_angle_l	mtp_angle_l	lumbar_extension	lumbar_bending	lumbar_rotation	arm_flex_r	arm_add_r	arm_rot_r	elbow_flex_r	pro_sup_r	wrist_flex_r	wrist_dev_r	arm_flex_l	arm_add_l	arm_rot_l	elbow_flex_l	pro_sup_l	wrist_flex_l	wrist_dev_l
      0.00000000	     -0.09825961	     -2.70454287	      4.25066684	     -1.15761348	      1.00711736	      0.21210902	      5.89015765	      3.96358242	    -10.95913614	    -13.35827891	      0.98440452	      4.11446608	      0.00423851	     -0.40000000	      0.00000000	     -6.34730574	      0.00000000	      0.00000000	     29.72638214	     -9.13968112	      0.25444282	    -55.93785792	      0.98440452	      4.11446608	      0.00000000	     -0.40000000	      0.00000000	    -17.25386497	      0.00000000	      0.00000000	    -19.58745415	      8.82830037	     -0.19238598	     -8.52689431	    -23.91307581	     16.62028852	     48.04539975	     80.06899538	      0.00000000	      0.00000000	    -15.42614844	    -18.64067360	     12.59961244	     55.73773375	     84.41284218	      0.00000000	      0.00000000
      0.01000000	      0.07735713	     -2.66425579	      4.26853488	     -1.15746255	      1.00738050	      0.21229660	      5.65011718	      3.96435392	    -10.84545939	    -13.23403450	      0.98440452	      4.11446608	      0.00398771	     -0.40000000	      0.00000000	     -6.39958280	      0.00000000	      0.00000000	     30.10446900	     -9.00695628	      0.27309701	    -57.63550777	      0.98440452	      4.11446608	      0.00000000	     -0.40000000	      0.00000000	    -17.23689751	      0.00000000	      0.00000000	    -19.78854499	      8.82036727	     -0.19262918	     -8.46054105	    -23.98573827	     16.74282829	     48.06219899	     80.31951307	      0.00000000	      0.00000000	    -15.44422373	    -18.67660948	     12.90317252	     55.75674591	     83.91543174	      0.00000000	      0.00000000
      0.02000000	      0.21637528	     -2.77865620	      4.29359744	     -1.15722032	      1.00747290	      0.21258042	      5.51131535	      4.12011539	    -10.90494626	    -13.27801436	      0.98440452	      4.11446608	      0.00414705	     -0.40000000	      0.00000000	     -6.35511345	      0.00000000	      0.00000000	     30.52904283	     -9.07143868	      0.30107211	    -59.41317923	      0.98440452	      4.11446608	      0.00000000	     -0.40000000	      0.00000000	    -16.55127172	      0.00000000	      0.00000000	    -19.93748356	      8.98816895	     -0.21156937	     -8.46466082	    -23.96229936	     16.51952765	     48.14232914	     80.47830470	      0.00000000	      0.00000000	    -15.52319791	    -18.48950239	     12.70673520	     55.62247568	     84.29916157	      0.00000000	      0.00000000
      0.03000000	      0.40778791	     -2.74887069	      4.24919985	     -1.15679071	      1.00778182	      0.21285083	      5.26465177	      4.12765083	    -10.90025278	    -13.32444375	      0.98440452	      4.11446608	      0.00462535	     -0.40000000	      0.00000000	     -6.30719725	      0.00000000	      0.00000000	     30.79901873	     -9.04279746	      0.14439129	    -61.09605958	      0.98440452	      4.11446608	      0.00000000	     -0.40000000	      0.00000000	    -16.60883912	      0.00000000	      0.00000000	    -20.15091741	      8.98502712	     -0.24548670	     -8.33713306	    -23.89127186	     16.52671437	     48.03149253	     79.98963723	      0.00000000	      0.00000000	    -15.52211862	    -18.49613797	     13.02935900	     55.48500429	     83.06600625	      0.00000000	      0.00000000
